# xmcd
#
# Track frame offsets:
# 150
# 17057
# 26939
# 52429
# 65691
#
# Disc length: 1099 seconds
#
# Revision: 0
# Processed by: cddbd v1.5.2PL0 Copyright (c) Steve Scherf et al.
# Submitted via: Audion 3.0.2 (http://www.panic.com/audion/)
#
DISCID=4a044905
DTITLE=Piccolo Coro dell'Antoniano - I Canti Sacri
DYEAR=1900
DGENRE=
TTITLE0=Lauda a San Francesco
TTITLE1=Hevenu Halom Aleichem
TTITLE2=Leghenda
TTITLE3=Riposa
TTITLE4=Ninna Ninna
EXTD=
EXTT0=
EXTT1=
EXTT2=
EXTT3=
EXTT4=
PLAYORDER=
